#!OML:ASF X:\für Bonn\!DataBase\2005_08_11_Bastian_Final\c3d\Bastian.ASF
:FULLY-SPECIFIED
:DEGREES
294
root 0.395647 16.4996 -4.4234 164.281 -2.9577 -177.429
lowerback 43.7455 -1.98147 10.3933
upperback 18.7181 -8.83572 6.328
thorax 1.31583 -8.23144 4.39251
lowerneck -9.30112 -4.00557 0.429649
upperneck -20.4069 -2.4649 6.2161
head -4.56211 -0.520581 1.8186
rclavicle 1.35174e-014 4.73108e-014
rhumerus -2.74594 -3.06596 -70.3528
rradius 48.7159
rwrist -168.576
rhand -11.1302 -8.23283
rfingers 7.12502
rthumb 14.8951 -37.6773
lclavicle 1.35174e-014 4.73108e-014
lhumerus 12.6147 -16.0978 81.8746
lradius 41.7062
lwrist 203.996
lhand -25.9135 17.35
lfingers 7.12502
lthumb 0.629257 47.3289
rfemur -22.869 -8.67519 21.8327
rtibia 44.2649
rfoot -1.71853 -2.62639
rtoes -2.76551
lfemur -15.0016 12.5288 -12.6674
ltibia 73.1434
lfoot -8.67053 -9.06827
ltoes -22.7541
295
root 0.397728 16.4638 -4.43304 164.578 -2.79326 -177.515
lowerback 44.3363 -1.98333 10.6886
upperback 18.7663 -8.83849 6.43145
thorax 1.24991 -8.28438 4.40786
lowerneck -9.58152 -3.98211 0.630609
upperneck -20.654 -2.40794 6.02164
head -4.60621 -0.468098 1.72146
rclavicle 4.77083e-015 2.78299e-015
rhumerus -1.8152 -3.37962 -70.3275
rradius 48.4157
rwrist -168.651
rhand -10.9285 -8.211
rfingers 7.12502
rthumb 15.0894 -37.641
lclavicle 4.77083e-015 2.78299e-015
lhumerus 13.391 -16.2849 81.2447
lradius 41.7148
lwrist 204.311
lhand -25.8037 17.1485
lfingers 7.12502
lthumb 0.735354 47.127
rfemur -23.6694 -8.87942 21.867
rtibia 45.0891
rfoot -1.9364 -2.25254
rtoes -2.14348
lfemur -16.4045 12.8362 -13.2627
ltibia 72.4628
lfoot -9.30564 -9.62993
ltoes -22.4691
296
root 0.398568 16.4279 -4.44196 164.834 -2.61165 -177.607
lowerback 44.9862 -1.98513 10.9872
upperback 18.7924 -8.8198 6.52341
thorax 1.14604 -8.32532 4.41214
lowerneck -9.76986 -3.95923 0.860896
upperneck -20.9309 -2.36051 5.7991
head -4.675 -0.425286 1.61176
rclavicle 5.32743e-014 -6.24184e-014
rhumerus -0.984475 -3.62386 -70.2444
rradius 48.1826
rwrist -168.792
rhand -10.7368 -8.1157
rfingers 7.12502
rthumb 15.2741 -37.5317
lclavicle 5.32743e-014 -6.24184e-014
lhumerus 14.0943 -16.5844 80.5616
lradius 41.7784
lwrist 204.686
lhand -25.6514 17.0052
lfingers 7.12502
lthumb 0.882429 46.9831
rfemur -24.4378 -9.0751 21.8886
rtibia 45.9447
rfoot -2.19013 -1.87056
rtoes -1.59743
lfemur -17.7309 13.1105 -13.864
ltibia 71.7
lfoot -9.99464 -10.151
ltoes -22.5635
297
root 0.39764 16.3858 -4.44848 165.081 -2.44368 -177.764
lowerback 46.5825 -2.21674 11.4548
upperback 17.9612 -8.75818 6.49039
thorax 0.926056 -8.38116 4.3847
lowerneck -9.91709 -3.93802 1.02352
upperneck -21.2367 -2.30489 5.61758
head -4.75713 -0.376244 1.5265
rclavicle 2.70347e-014 6.0033e-014
rhumerus -0.129338 -3.83817 -70.1673
rradius 47.9832
rwrist -168.938
rhand -10.6116 -7.92242
rfingers 7.12502
rthumb 15.3946 -37.3292
lclavicle 2.70347e-014 6.0033e-014
lhumerus 14.7861 -16.8415 79.8491
lradius 41.7917
lwrist 205.151
lhand -25.4808 16.993
lfingers 7.12502
lthumb 1.0472 46.9701
rfemur -25.2421 -9.27592 21.8324
rtibia 46.8398
rfoot -2.43249 -1.51161
rtoes -1.08259
lfemur -19.0122 13.3287 -14.5494
ltibia 70.8509
lfoot -10.6065 -10.6295
ltoes -22.9378
298
root 0.396077 16.3405 -4.45481 165.324 -2.27616 -177.915
lowerback 47.325 -2.2547 11.6916
upperback 17.9018 -8.75292 6.54861
thorax 0.768588 -8.42924 4.41445
lowerneck -10.0013 -3.89374 1.2203
upperneck -21.5603 -2.2282 5.38746
head -4.85676 -0.319651 1.42043
rclavicle -1.82882e-014 8.74653e-015
rhumerus 0.632492 -4.01439 -70.0654
rradius 47.8598
rwrist -169.155
rhand -10.5164 -7.68986
rfingers 7.12502
rthumb 15.4863 -37.0896
lclavicle -1.82882e-014 8.74653e-015
lhumerus 15.4341 -17.1397 79.0852
lradius 41.8358
lwrist 205.698
lhand -25.3774 16.948
lfingers 7.12502
lthumb 1.14704 46.9247
rfemur -26.0562 -9.46576 21.7821
rtibia 47.765
rfoot -2.72197 -1.13448
rtoes -0.709491
lfemur -20.2887 13.5205 -15.237
ltibia 69.9317
lfoot -11.1585 -11.0823
ltoes -23.9717
299
root 0.392647 16.2923 -4.45939 165.528 -2.08938 -178.076
lowerback 48.1233 -2.28331 11.8971
upperback 17.8171 -8.7394 6.62686
thorax 0.583381 -8.48118 4.4861
lowerneck -9.97567 -3.86714 1.31883
upperneck -21.9498 -2.16197 5.20269
head -4.99094 -0.265969 1.34619
rclavicle -2.38542e-014 4.81059e-014
rhumerus 1.37979 -4.08309 -69.8756
rradius 47.7533
rwrist -169.423
rhand -10.4456 -7.36834
rfingers 7.12502
rthumb 15.5545 -36.7628
lclavicle -2.38542e-014 4.81059e-014
lhumerus 16.0173 -17.3666 78.3715
lradius 41.8754
lwrist 206.253
lhand -25.2714 16.9698
lfingers 7.12502
lthumb 1.24948 46.9459
rfemur -26.8619 -9.66781 21.7111
rtibia 48.7161
rfoot -3.00542 -0.742165
rtoes -0.254323
lfemur -21.5118 13.6888 -15.9249
ltibia 68.9548
lfoot -11.6178 -11.4914
ltoes -25.0691
300
root 0.388491 16.2434 -4.46297 165.73 -1.88169 -178.238
lowerback 48.9794 -2.32588 12.0928
upperback 17.6929 -8.71797 6.68988
thorax 0.350199 -8.5263 4.55557
lowerneck -9.89264 -3.83585 1.39549
upperneck -22.3636 -2.08681 5.02799
head -5.1415 -0.208146 1.27883
rclavicle 1.51076e-014 2.62396e-014
rhumerus 2.07353 -4.16319 -69.7122
rradius 47.677
rwrist -169.642
rhand -10.4131 -7.07727
rfingers 7.12502
rthumb 15.5858 -36.4693
lclavicle 1.51076e-014 2.62396e-014
lhumerus 16.5765 -17.5866 77.609
lradius 41.9224
lwrist 206.833
lhand -25.2274 17.0215
lfingers 7.12502
lthumb 1.29196 46.9974
rfemur -27.6656 -9.83673 21.6505
rtibia 49.6608
rfoot -3.28058 -0.380533
rtoes 0.270435
lfemur -22.7108 13.811 -16.5927
ltibia 67.9472
lfoot -12.0257 -11.8933
ltoes -25.8281
301
root 0.383423 16.1919 -4.4648 165.971 -1.64502 -178.345
lowerback 49.8167 -2.37679 12.3224
upperback 17.5594 -8.68886 6.77085
thorax 0.12029 -8.56707 4.62573
lowerneck -9.88571 -3.8003 1.41644
upperneck -22.7446 -2.00062 4.87017
head -5.26885 -0.137584 1.22455
rclavicle -3.57812e-014 1.19668e-013
rhumerus 2.81459 -4.2535 -69.5576
rradius 47.5687
rwrist -169.663
rhand -10.3197 -6.82322
rfingers 7.12502
rthumb 15.6758 -36.2082
lclavicle -3.57812e-014 1.19668e-013
lhumerus 17.1905 -17.7495 76.8344
lradius 41.932
lwrist 207.45
lhand -25.1565 17.0272
lfingers 7.12502
lthumb 1.36038 47.0026
rfemur -28.5273 -10.024 21.6718
rtibia 50.5945
rfoot -3.54601 0.0189538
rtoes 0.543144
lfemur -23.9872 13.9293 -17.1928
ltibia 66.9581
lfoot -12.3582 -12.2508
ltoes -26.1112
302
root 0.377448 16.1419 -4.46365 166.178 -1.38724 -178.478
lowerback 50.7221 -2.4142 12.514
upperback 17.4268 -8.66849 6.84933
thorax -0.108673 -8.62292 4.71908
lowerneck -9.83593 -3.76466 1.36911
upperneck -23.2227 -1.88632 4.7639
head -5.43264 -0.0453765 1.19762
rclavicle 3.18055e-015 1.43523e-013
rhumerus 3.59397 -4.26763 -69.3778
rradius 47.4437
rwrist -169.846
rhand -10.1355 -6.7076
rfingers 7.12502
rthumb 15.8532 -36.0786
lclavicle 3.18055e-015 1.43523e-013
lhumerus 17.8487 -17.8477 76.019
lradius 41.9093
lwrist 208.106
lhand -25.1351 16.9824
lfingers 7.12502
lthumb 1.38108 46.9577
rfemur -29.358 -10.1693 21.6646
rtibia 51.5074
rfoot -3.80112 0.420727
rtoes 0.833214
lfemur -25.2212 13.9868 -17.7907
ltibia 65.9858
lfoot -12.6623 -12.5748
ltoes -26.2185
303
root 0.371173 16.0899 -4.46151 166.416 -1.11811 -178.582
lowerback 51.5487 -2.45511 12.7396
upperback 17.3237 -8.6508 6.9186
thorax -0.287307 -8.67546 4.77628
lowerneck -9.88891 -3.74181 1.2898
upperneck -23.572 -1.7975 4.7063
head -5.53777 0.0334024 1.19048
rclavicle -3.97569e-015 -3.89618e-014
rhumerus 4.37333 -4.339 -69.2228
rradius 47.3432
rwrist -170.025
rhand -9.96562 -6.62395
rfingers 7.12502
rthumb 16.0167 -35.9819
lclavicle -3.97569e-015 -3.89618e-014
lhumerus 18.5952 -17.9227 75.1423
lradius 41.8898
lwrist 208.712
lhand -25.1007 16.8721
lfingers 7.12502
lthumb 1.41428 46.8472
rfemur -30.2325 -10.3373 21.7057
rtibia 52.4131
rfoot -4.02504 0.827657
rtoes 1.19141
lfemur -26.4968 13.9857 -18.3436
ltibia 65.0461
lfoot -12.9661 -12.8383
ltoes -26.1678
304
root 0.364133 16.0347 -4.45779 166.635 -0.830628 -178.661
lowerback 52.385 -2.48879 12.9816
upperback 17.2425 -8.63795 6.99308
thorax -0.431929 -8.73778 4.83027
lowerneck -10.0955 -3.72363 1.19691
upperneck -23.755 -1.73316 4.66242
head -5.56484 0.099367 1.18886
rclavicle 3.26007e-014 -8.22969e-014
rhumerus 5.2079 -4.41137 -69.0872
rradius 47.27
rwrist -170.191
rhand -9.79343 -6.52601
rfingers 7.12502
rthumb 16.1826 -35.8705
lclavicle 3.26007e-014 -8.22969e-014
lhumerus 19.4694 -17.9506 74.2207
lradius 41.8477
lwrist 209.312
lhand -25.1098 16.6816
lfingers 7.12502
lthumb 1.40551 46.6567
rfemur -31.0945 -10.4852 21.7766
rtibia 53.3121
rfoot -4.25291 1.24451
rtoes 1.49898
lfemur -27.733 13.9362 -18.8352
ltibia 64.1304
lfoot -13.2061 -12.9706
ltoes -26.0302
305
root 0.356527 15.9788 -4.45354 166.877 -0.524337 -178.753
lowerback 53.1872 -2.49842 13.1646
upperback 17.1549 -8.61849 7.08214
thorax -0.574823 -8.79921 4.92157
lowerneck -10.2776 -3.71018 1.0253
upperneck -23.9106 -1.67169 4.66511
head -5.58469 0.164368 1.21588
rclavicle -2.14687e-014 -7.15625e-015
rhumerus 6.00796 -4.42197 -68.8977
rradius 47.2192
rwrist -170.367
rhand -9.62544 -6.43927
rfingers 7.12502
rthumb 16.3443 -35.7706
lclavicle -2.14687e-014 -7.15625e-015
lhumerus 20.3198 -17.8721 73.3346
lradius 41.8093
lwrist 209.886
lhand -25.2293 16.4901
lfingers 7.12502
lthumb 1.29006 46.4659
rfemur -31.9983 -10.6102 21.846
rtibia 54.2241
rfoot -4.47137 1.62715
rtoes 1.86687
lfemur -28.9891 13.847 -19.3163
ltibia 63.222
lfoot -13.3578 -13.061
ltoes -25.7272
306
root 0.348088 15.9197 -4.44905 167.111 -0.234508 -178.817
lowerback 53.9572 -2.53009 13.3951
upperback 17.0747 -8.60372 7.16654
thorax -0.698038 -8.85867 4.98477
lowerneck -10.4428 -3.71399 0.854315
upperneck -24.0996 -1.63221 4.64834
head -5.61802 0.221363 1.23707
rclavicle 4.77083e-015 -3.18055e-014
rhumerus 6.79295 -4.44953 -68.7112
rradius 47.1845
rwrist -170.538
rhand -9.45859 -6.31788
rfingers 7.12502
rthumb 16.505 -35.6359
lclavicle 4.77083e-015 -3.18055e-014
lhumerus 21.1964 -17.8467 72.369
lradius 41.8352
lwrist 210.444
lhand -25.4135 16.2587
lfingers 7.12502
lthumb 1.11224 46.2355
rfemur -32.9107 -10.7665 21.9415
rtibia 55.1539
rfoot -4.69591 2.02934
rtoes 2.04528
lfemur -30.2607 13.6876 -19.7495
ltibia 62.3578
lfoot -13.4419 -13.0465
ltoes -25.6971
